<svg xmlns="http://www.w3.org/2000/svg" viewBox="0 0 131.99 87.9"><defs><style>.a{fill:#c3a180;}</style></defs><title>squash-court</title><path class="a" d="M557.1,1203.39c-3.66-1.75-7.56-1.06-11.35-1.22-5.57-.24-11.15-0.3-16.72-0.44a3.24,3.24,0,0,0-2.33.68,24,24,0,0,1-3.81,2.09l-37.51,19.65c-1.8.94-2.39,0.75-3.35-1.07q-2.13-4.06-4.25-8.11c-0.72-1.37-.53-2.07.86-2.8l15.53-8.15q12.32-6.46,24.64-12.9c0.75-.39,1.58-0.6,2.36-0.94a1.53,1.53,0,0,0,.64-0.54q6.91-10.53,13.8-21.09a4.22,4.22,0,0,0,.55-1.21c3.13-12,10.68-20.31,21.52-25.83a41,41,0,0,1,25.67-4.17c13.31,2.14,23.74,11.55,25.67,24.82a31.82,31.82,0,0,1-5.88,23.69c-10.09,14.11-23.92,20.35-41.25,18.52A48.14,48.14,0,0,1,557.1,1203.39Zm-37.51-8.5-37.81,19.81,3,5.65,37.73-20Zm15.57-19.21c-3.59,5.45-6.94,10.63-10.42,15.71-0.9,1.32-1.09,2.36-.13,3.65a8.94,8.94,0,0,1,1,2,1.67,1.67,0,0,0,1.77,1.14c5.46,0.09,10.91.25,16.37,0.39,0.52,0,1,0,1.56,0s1,0,1.79,0C539.51,1192.76,535.66,1185.25,535.17,1175.68Zm22.25-13.84-12.23,6.41,6.41,12.26,12.24-6.41Zm7.43,14.17-12.24,6.41,6.38,12.13,12.24-6.37Zm8.14,11.23,12.19-6.38-6.4-12.21L566.59,1175Zm-1.42-32.8-12.35,6.44,6.37,12.15,12.34-6.46Zm9.33,13.07,6.44,12.27,11.92-6.23-6.38-12.31Zm11-8.11L585.48,1147l-12.07,6.31,6.47,12.35Zm-0.14,33.67-5.43-10.33-12.44,6.52c1.65,3.14,3.38,6.38,5.06,9.65a0.74,0.74,0,0,0,1.17.32c2.53-1.16,5.1-2.24,7.57-3.51A43.41,43.41,0,0,0,591.76,1193.06Zm-21.22-40.38-5.46-10.49a41.33,41.33,0,0,0-12.11,6.36l5.44,10.41Zm-19.31-2.62c-2.86,1.92-8.08,8.49-9.27,11.73a1,1,0,0,0,0,.73c0.67,1.39,1.38,2.76,2,4l12.54-6.46Zm20.94,39.9-12.5,6.57c0.6,1.11,1.29,2.26,1.86,3.47a1.58,1.58,0,0,0,1.54,1c3.18,0,6.37.09,9.55-.06a35.2,35.2,0,0,0,4.85-.88Zm16-8.46,5.22,10.07c2.79-1.85,8-8.37,9.16-11.6a1.23,1.23,0,0,0,.06-0.84c-0.66-1.4-1.37-2.77-2.05-4.12Zm-15.82-30,12.42-6.44c-0.56-1.05-1.22-2.14-1.74-3.29a2,2,0,0,0-1.88-1.29,38.21,38.21,0,0,0-11,.37c-1,.19-2.07.46-3,0.68Zm30.18,2.26a25.34,25.34,0,0,0-10.34-9.87,1.34,1.34,0,0,0-1,0c-1.35.61-2.67,1.3-3.76,1.84l6.54,12.6Zm-7.79,6.32,6.56,12.54c1.28-.69,2.64-1.38,3.94-2.15a1.36,1.36,0,0,0,.44-0.94A26.24,26.24,0,0,0,604,1156.7c-0.16-.4-0.36-0.78-0.51-1.1Zm-37.65,35.75-6.58-12.55-8.37,4.31a0.21,0.21,0,0,0,0,.09,24.8,24.8,0,0,0,10.45,10,0.92,0.92,0,0,0,.72,0C554.68,1197.11,556,1196.44,557.11,1195.88Zm-7.46-14.38-6.6-12.57c-0.45.28-1,.67-1.59,1-2.62,1.39-2.63,1.39-2.72,4.35a25,25,0,0,0,2.42,11.69Zm39.94-38.76-4.91-1.53,1.65,3.16Zm-47.21,24.83-1.52-3.05-1.42,4.53Zm62.83,5.13-2.69,1.42,1.27,3.12Zm-50,26.13c1.5,0.94,3.68,1.53,4.23,1.3l-1.32-2.87Z" transform="translate(-477.38 -1136.8)"/><path class="a" d="M496.93,1178.22a17.78,17.78,0,0,1,10.43-34A17.78,17.78,0,1,1,496.93,1178.22Zm13.19-5.38a3,3,0,0,0,.39-0.19c4.8-3.2,7.12-10.44,5.14-15.85a0.87,0.87,0,0,0-1.2-.57,24.31,24.31,0,0,1-19.57-6.17,1,1,0,0,0-1.5,0,14.16,14.16,0,0,0-5.19,8.46,13.25,13.25,0,0,0,.76,7.86A25.19,25.19,0,0,1,510.12,1172.83Zm-14.3-24.22a23.29,23.29,0,0,0,18.73,6C511.46,1148,502.5,1144.94,495.82,1148.62Zm12.56,25.22c-3.37-4.19-13.68-7.39-18.5-5.75C493.12,1174.5,502,1177.39,508.38,1173.84Z" transform="translate(-477.38 -1136.8)"/></svg>