<svg xmlns="http://www.w3.org/2000/svg" viewBox="0 0 99.94 92.95"><defs><style>.a{fill:#c3a180;}</style></defs><title>children-play-area</title><path class="a" d="M128,672.76a2.21,2.21,0,0,1,2.34-1.18c1,0.08,2,0,3,0,1.34,0,1.34,0,1.34-1.31q0-12.89,0-25.78,0-22.36,0-44.72c0-.48,0-1,0-1.54-0.57,0-1,0-1.46,0a1.69,1.69,0,0,1-1.78-1.22,1.58,1.58,0,0,1,.78-1.82l17.93-13a1.84,1.84,0,0,1,2.41.07c6,4.35,12,8.66,17.9,13a2.23,2.23,0,0,1,.72,1.64,1.43,1.43,0,0,1-1.49,1.28c-0.54,0-1.09,0-1.7,0v20.08c0.5,0,1,0,1.51,0a5,5,0,0,1,5.08,5.07c0,2.72,0,5.45,0,8.28,0.66,0.12,1.54.26,2.42,0.46a16.85,16.85,0,0,1,8.35,4.58q11.76,11.71,23.49,23.46A15.3,15.3,0,0,0,219.43,665c1.33,0.06,1.84.61,1.85,2s0,2.6,0,3.91a0.65,0.65,0,0,0,.79.79c1.33,0,2.67,0,4,0a1.58,1.58,0,1,1,0,3.11H131.4c-0.59,0-1.17,0-1.76,0a1.93,1.93,0,0,1-1.64-1.18v-0.78Zm78-1.21c-1.15-1.07-2.16-2-3.12-2.91q-11.3-11.26-22.59-22.54a15.4,15.4,0,0,0-11.12-4.64,1,1,0,0,0-1.25,1.25q0.06,13.86,0,27.71c0,0.92.21,1.21,1.18,1.21,12,0,23.94,0,35.91,0C205.27,671.61,205.53,671.58,206,671.55Zm-64.58-40c0-.51,0-1,0-1.41,0-3.74,0-7.48,0-11.23a14,14,0,0,1,.31-3.09,9.92,9.92,0,0,1,10.33-7.46,9.79,9.79,0,0,1,9.11,9.41c0.11,4.13,0,8.26.05,12.4,0,0.45,0,.89.07,1.45,0.88,0,1.69-.05,2.5,0s1-.28,1-1q0-12.35,0-24.7c0-.31,0-0.62,0-0.93H138v26.56h3.44Zm3.14-.88a0.76,0.76,0,0,0,.93,1c3.9,0,7.81,0,11.71,0a0.73,0.73,0,0,0,.91-0.87c0-4.16,0-8.33,0-12.49a6.77,6.77,0,0,0-6-6.69c-3.75-.26-6.85,2-7.3,5.65C144.46,619.57,144.6,628.58,144.56,630.69Zm73.53,37.43c-0.35-.08-0.57-0.14-0.79-0.17a18.72,18.72,0,0,1-11-5.82c-7.55-7.63-15.23-15.13-22.76-22.78-4.39-4.46-9.77-4.91-15.53-4.4v3.34h1A18.61,18.61,0,0,1,182.71,644q11.52,11.59,23.13,23.1a15.34,15.34,0,0,0,11.36,4.52,0.73,0.73,0,0,0,.88-0.91C218,669.87,218.08,669,218.08,668.12ZM164.58,595c-0.46-.37-0.7-0.58-1-0.77-3.84-2.79-7.7-5.57-11.52-8.39a1.13,1.13,0,0,0-1.6,0c-3.83,2.81-7.68,5.59-11.52,8.38-0.25.18-.48,0.39-0.9,0.73h26.49Zm0.18,48.57c0-2.09,0-2.09-2.12-2.09-1.4,0-1.4,0-1.4,1.45q0,13.17,0,26.33c0,2.37,0,2.33,2.38,2.37a0.93,0.93,0,0,0,1.16-1.14C164.73,665.84,164.75,647.89,164.76,643.57Zm-23.42-2.09a20.37,20.37,0,0,1-2.2,0c-1-.11-1.25.23-1.25,1.23,0,8.87,0,17.75,0,26.62,0,2.31,0,2.26,2.31,2.32a1,1,0,0,0,1.21-1.21c0-9.26,0-18.53,0-27.79C141.42,642.28,141.37,641.93,141.34,641.48Zm-3.42-3.28h26.83c0-.86,0-1.64,0-2.41s-0.27-1-1-1c-3.09,0-6.18,0-9.27,0H138.88c-0.42,0-1-.16-1,0.59S137.92,637.23,137.92,638.2Zm0-39.88c0,0.85.05,1.56,0,2.27-0.08.89,0.23,1.15,1.13,1.15,7.8,0,15.6,0,23.41,0,2.32,0,2.27,0,2.33-2.28,0-1-.28-1.19-1.21-1.19-8.19,0-16.39,0-24.58,0C138.68,598.26,138.36,598.3,137.92,598.32Zm13.52,56.45h-4.39c-2.5,0-2.47,0-2.5,2.5a0.86,0.86,0,0,0,1.06,1c3.31,0,6.63,0,9.94,0,3,0,2.48.56,2.54-2.65a0.74,0.74,0,0,0-.92-0.89C155.27,654.79,153.36,654.77,151.44,654.77Zm0,6.65h-4.38c-2.53,0-2.5,0-2.51,2.51a0.87,0.87,0,0,0,1.08,1c3.31,0,6.62,0,9.94,0,2.62,0,2.6,0,2.55-2.66a0.75,0.75,0,0,0-.92-0.89C155.28,661.44,153.36,661.42,151.44,661.42Zm0,6.66h-4.28c-2.65,0-2.63,0-2.6,2.62a0.78,0.78,0,0,0,1,.92c3.34,0,6.69,0,10,0,2.6,0,2.56,0,2.56-2.57a0.82,0.82,0,0,0-1-1C155.2,668.11,153.32,668.08,151.44,668.08Zm-0.1-16.44h4.3c2.5,0,2.47,0,2.48-2.47a0.86,0.86,0,0,0-1-1.07c-3.32,0-6.64,0-10,0-2.63,0-2.61,0-2.57,2.64a0.75,0.75,0,0,0,.93.88C147.43,651.62,149.38,651.64,151.34,651.64Zm0-10.16h-4.49c-2.29,0-2.24,0-2.31,2.33,0,1,.33,1.2,1.23,1.19,3.25,0,6.51,0,9.76,0,2.66,0,2.63,0,2.59-2.64a0.74,0.74,0,0,0-.92-0.88C155.24,641.5,153.29,641.48,151.34,641.48ZM168,631.57c0.38,0,.66.06,0.95,0.06,2,0,2.48-.49,2.48-2.46,0-1.69-.09-3.38,0-5.06,0.13-2-.84-3.06-3.45-2.37v9.84Z" transform="translate(-128 -581.79)"/></svg>