<svg xmlns="http://www.w3.org/2000/svg" viewBox="0 0 115.47 115.48"><defs><style>.a{fill:#c3a180;}</style></defs><title>clubhouse</title><path class="a" d="M822.89,813.89c0-3.6,0-7.06,0-10.52,0-2.53,0-5.06,0-7.59,0-1.07-.35-1.35-1.34-1.3-1.4.07-2.8,0-4.2,0s-2.17-.68-2.18-2.23c0-2.1.05-4.21,0-6.3a3,3,0,0,1,1.8-3.06q19.78-10.74,39.52-21.54a1.75,1.75,0,0,0,1.13-1.9,19,19,0,0,1,0-2.57,0.78,0.78,0,0,0-1-1c-1.17,0-2.44.16-2.86-1.35s0.8-2,1.75-2.67c5.27-3.53,10.55-7,15.81-10.57a2.4,2.4,0,0,1,3,0q8.33,5.6,16.69,11.14a1.84,1.84,0,0,1-1,3.49c-2,0-1.71-.32-1.94,2-0.21,2.14.6,3.19,2.46,4.19,12.81,6.87,25.54,13.89,38.31,20.83a2.86,2.86,0,0,1,1.72,2.87c-0.06,2.14,0,4.28,0,6.42,0,1.61-.66,2.24-2.28,2.25s-3.49,0-5.32,0V814c1.18,0,2.33,0,3.49,0a1.83,1.83,0,0,1,2,1.36,1.79,1.79,0,0,1-1.26,2.29,1.11,1.11,0,0,0-.55.85q0,8.93,0,17.86a1.2,1.2,0,0,0,.73.74,4.48,4.48,0,0,0,1.16,0,1.87,1.87,0,0,1,2,2q0,7.53,0,15.06c0,1.46-.81,2.07-2.51,2.07h-110c-2.41,0-2.93-.52-2.93-3q0-6.77,0-13.54c0-2,.6-2.71,2.63-2.64,1.05,0,1.3-.31,1.29-1.32,0-5.6,0-11.21,0-16.81a1.31,1.31,0,0,0-1-1.57,1.62,1.62,0,0,1-.91-2,1.69,1.69,0,0,1,1.67-1.39c0.93-.08,1.87,0,2.8,0C822.05,814,822.4,813.92,822.89,813.89ZM892.17,814c0-.47.06-0.74,0.06-1,0-5.76,0-11.52,0-17.28,0-1-.4-1.2-1.3-1.2q-18.1,0-36.19,0a1,1,0,0,0-1.2,1.18c0,5.72,0,11.44,0,17.16,0,0.34,0,.68.08,1.13H855c0.86,0,1.72,0,2.57,0a1.74,1.74,0,0,1,1.74,1.59,1.58,1.58,0,0,1-1,1.88,1.19,1.19,0,0,0-.88,1.5q0,7.65,0,15.3c0,2.84,0,2.85,2.88,2.85h26.85c0.66,0,1.33.14,1.32-.93,0-5.88,0-11.75,0-17.63a1.14,1.14,0,0,0-.51-0.89,1.81,1.81,0,0,1-1.32-2.27c0.25-1.19,1.19-1.42,2.23-1.42h3.35Zm-67.53-31h96.44a5.44,5.44,0,0,0-.52-0.41q-17-9.3-34.08-18.58a3.63,3.63,0,0,0-1.67-.36q-11.9,0-23.81,0a4.35,4.35,0,0,0-2,.51q-16.59,9-33.15,18.1C825.55,782.46,825.23,782.66,824.64,783Zm5.83,38.6H846c0-1.15,0-2.23,0-3.31a1,1,0,0,0-.57-0.71,1.79,1.79,0,0,1-1.25-2.11,1.87,1.87,0,0,1,2.06-1.52c0.82,0,1.64-.05,2.45,0a1,1,0,0,0,1.29-1.21q-0.07-8.51,0-17a1,1,0,0,0-1.27-1.26q-10.32.05-20.64,0c-1.1,0-1.48.3-1.47,1.44,0,5.6,0,11.2,0,16.8,0,0.38.06,0.76,0.1,1.26,1.29,0,2.49,0,3.69,0a1.8,1.8,0,0,1,1.95,1.49,1.78,1.78,0,0,1-1.21,2.12,1.06,1.06,0,0,0-.6.68C830.43,819.34,830.47,820.42,830.47,821.61Zm84.87,0c0-1.18,0-2.3,0-3.41a0.93,0.93,0,0,0-.54-0.6,1.76,1.76,0,0,1-1.28-2.08,1.85,1.85,0,0,1,2-1.55c0.89,0,1.79,0,2.68,0s1.07-.29,1.06-1.08q0-8.69,0-17.39a0.86,0.86,0,0,0-1-1q-10.68,0-21.35,0a0.81,0.81,0,0,0-1,.94q0,8.81,0,17.62a0.78,0.78,0,0,0,1,.92c1,0,1.95,0,2.92,0a1.81,1.81,0,0,1,1.89,1.57,1.79,1.79,0,0,1-1.2,2,1.09,1.09,0,0,0-.62.66c-0.07,1.11,0,2.22,0,3.37h15.52Zm-96.46-30.79H925.23c1.75,0,1.75.34,1.72-1.78,0-2.48.42-2.25-2.34-2.25h-95c-3.19,0-6.38,0-9.57,0a1.38,1.38,0,0,0-1.08.64A30.22,30.22,0,0,0,818.88,790.82Zm73.27,61.75h3.93c9.84,0,19.69,0,29.53,0,1.1,0,1.38-.37,1.36-1.41-0.06-3-.07-5.92,0-8.87,0-1.15-.27-1.54-1.48-1.53-10.7,0-21.4,0-32.1,0-0.41,0-.82.06-1.25,0.09v11.66Zm-38.5-11.67c-0.36,0-.59-0.09-0.81-0.09q-16.46,0-32.91,0a0.9,0.9,0,0,0-1.07,1.1c0,3.15,0,6.3,0,9.45a1,1,0,0,0,1.28,1.25c10.66,0,21.32,0,32,0,0.5,0,1-.05,1.55-0.08V840.9Zm19.19,4h13.31c2.76,0,2.25.23,2.29-2.29,0-1.75,0-1.76-1.79-1.76h-26.5c-2.8,0-2.75,0-2.78,2.76,0,1.07.37,1.3,1.35,1.3C863.42,844.83,868.13,844.85,872.84,844.85Zm-0.06,7.72H886c2.46,0,2.46,0,2.47-2.46,0-1.55,0-1.55-1.5-1.55H860c-2.62,0-2.56,0-2.63,2.57,0,1.11.29,1.48,1.43,1.47C863.44,852.54,868.11,852.58,872.78,852.58Zm11.75-92.63c0-1-.06-1.91,0-2.79s-0.3-1.25-1.26-1.24c-5.6,0-11.21,0-16.81,0-1.44,0-2.88,0-4.32,0a1.07,1.07,0,0,0-.82.51c-0.08,1.14,0,2.29,0,3.47h23.23Zm-0.73-7.71a4.42,4.42,0,0,0-.48-0.5c-3.26-2.19-6.51-4.38-9.81-6.52a1.48,1.48,0,0,0-1.31.07c-3.2,2.07-6.35,4.2-9.53,6.31a4.76,4.76,0,0,1-.71.32l0.27,0.32H883.8ZM923,837.11c0-.5.06-0.84,0.06-1.18,0-5.67,0-11.34,0-17,0-1.08-.36-1.3-1.34-1.28-2.71,0-2.72,0-2.73,2.69,0,5.21,0,10.41,0,15.62,0,0.91.26,1.26,1.19,1.18S922,837.11,923,837.11Zm-30.81-19.44v19.45c1,0,2,0,2.95,0a0.82,0.82,0,0,0,1-1c0-1.24,0-2.49,0-3.73q0-6.77,0-13.54c0-.53.14-1.17-0.71-1.18C894.38,817.65,893.34,817.66,892.18,817.66Zm-38.54,0c-1,0-1.91,0-2.83,0a0.92,0.92,0,0,0-1.14,1.14c0,2.72,0,5.45,0,8.17,0,3,0,6,0,9a1.42,1.42,0,0,0,.59,1.1,30.81,30.81,0,0,0,3.34.05V817.66Zm-30.78,0v19.43c1.12,0,2.13.06,3.13,0a1.15,1.15,0,0,0,.77-0.8q0.07-8.87,0-17.75a1,1,0,0,0-.55-0.8C825.12,817.63,824,817.68,822.86,817.68Zm23.08,7.78H830.57v3.85h15.37v-3.85Zm53.93,3.85h15.41v-3.85H899.88v3.85Zm0,7.72h15.41v-3.84H899.88V837Zm-53.94-3.84H830.53V837h15.41v-3.83Z" transform="translate(-815.17 -740.8)"/></svg>