<?xml version="1.0"?>
<svg xmlns="http://www.w3.org/2000/svg" height="512px" viewBox="0 -1 511.99988 511" width="512px" class=""><g><path d="m441.609375 303.597656c-.496094 0-.921875.109375-1.464844.117188l-20.882812-77.152344c3.113281-.027344 6.210937-.453125 9.214843-1.265625 3-.851563 5.875-2.089844 8.554688-3.683594l23.847656 88.183594c-5.667968-3.921875-12.375-6.078125-19.269531-6.199219zm-81.496094-260.289062 32.046875-8.671875c1.246094.191406 2.519532.125 3.738282-.195313l40.78125 150.464844c2.65625 9.828125-3.15625 19.949219-12.984376 22.605469-9.828124 2.65625-19.949218-3.15625-22.605468-12.984375zm135.316407 132.417968c-1.59375 10.054688-11.039063 16.910157-21.09375 15.316407-4.828126-.769531-9.15625-3.421875-12.027344-7.378907l-10.882813-15.03125-.101562-.09375-27.09375-100.128906 67.945312 93.59375c2.871094 3.957032 4.042969 8.898438 3.253907 13.722656zm-136.050782-170.40625 17.796875-4.820312 4.808594 17.796875-17.785156 4.808594zm18.753906 201.445313c-1.019531 10.128906-10.054687 17.515625-20.183593 16.496094-10.128907-1.015625-17.515625-10.054688-16.496094-20.179688l11.519531-115.648437 26.476563 97.851562c0 .304688-.136719.578125-.117188.921875l.367188 4.902344zm-29.925781 162.933594c2.675781 1.550781 5.539063 2.75 8.515625 3.566406l-8.515625 8.5zm5.402344-44.789063 26.0625-26.070312c7.21875-7.175782 18.886719-7.140625 26.066406.078125 6.0625 6.097656 7.101563 15.582031 2.503907 22.851562l-31.703126 31.703125c-8.609374 5.429688-19.992187 2.851563-25.421874-5.757812-4.582032-7.257813-3.542969-16.71875 2.5-22.8125zm-23.832031 60.667969h-110.589844v-18.429687h110.589844zm-129.019532 82.941406h-92.160156v-18.429687h92.160156zm0-36.863281h-92.160156v-27.644531h92.160156zm-92.160156-46.078125v-18.429687h92.160156v18.429687zm-67.105468-9.214844c0-5.089843 4.125-9.214843 9.214843-9.214843h39.460938v18.429687h-39.460938c-5.089843 0-9.214843-4.125-9.214843-9.214844zm-23.816407 128.808594c-1.21875 2.117187-3.234375 3.660156-5.59375 4.292969-4.910156 1.332031-9.972656-1.570313-11.304687-6.484375-.640625-2.371094-.308594-4.898438.917968-7.023438l21.199219-36.652343h21.257813zm9.519531-64.296875v-36.863281h62.972657v36.863281zm81.402344 64.507812v-18.429687h92.160156v18.429687zm110.589844-101.371093h129.019531c2.445313 0 4.789063-.972657 6.515625-2.703125l34.421875-34.371094c1.246094-.894531 2.433594-1.863281 3.558594-2.90625l26.070313-26.070312c1.042968-1.125 2.011718-2.3125 2.902343-3.558594l7.375-7.371094c6.5625-6.578125 17.21875-6.59375 23.796875-.03125.148438.148438.296875.300781.4375.457031 6.234375 6.621094 6.054688 17.003907-.402344 23.40625l-90.085937 90.085938h-143.609375zm158.804688 104.53125c-4.40625 2.546875-10.042969 1.035156-12.585938-3.371094l-26.476562-45.867187h21.257812l21.199219 36.652343c2.539062 4.410157 1.023437 10.042969-3.386719 12.585938-.003906 0-.003906 0-.007812 0zm116.222656-5.066407-35.769532-132.164062 7.496094-7.492188c2.84375-2.886718 5.175782-6.246093 6.882813-9.925781l39.175781 144.761719zm0 0" data-original="#000000" class="active-path" data-old_color="#000000" fill="#C5A182"/><path d="m108.148438 76.640625c23.703124 0 42.917968 19.214844 42.917968 42.917969s-19.214844 42.917968-42.917968 42.917968c-23.703126 0-42.917969-19.214843-42.917969-42.917968.023437-23.691406 19.226562-42.894532 42.917969-42.917969zm0 0" data-original="#000000" class="active-path" data-old_color="#000000" fill="#C5A182"/><path d="m104.988281 39.777344c5.089844 0 9.214844-4.125 9.214844-9.214844v-18.433594c0-5.089844-4.125-9.214844-9.214844-9.214844-5.089843 0-9.21875 4.125-9.21875 9.214844v18.433594c0 5.089844 4.128907 9.214844 9.21875 9.214844zm0 0" data-original="#000000" class="active-path" data-old_color="#000000" fill="#C5A182"/><path d="m4.597656 75.40625 15.964844 9.214844c4.390625 2.574218 10.035156 1.101562 12.609375-3.289063s1.101563-10.039062-3.289063-12.613281c-.035156-.019531-.070312-.039062-.105468-.058594l-15.960938-9.214844c-4.425781-2.515624-10.050781-.96875-12.566406 3.453126-2.492188 4.382812-1 9.957031 3.347656 12.507812zm0 0" data-original="#000000" class="active-path" data-old_color="#000000" fill="#C5A182"/><path d="m9.214844 187.230469c1.621094 0 3.210937-.425781 4.609375-1.238281l15.960937-9.214844c4.425782-2.515625 5.972656-8.140625 3.457032-12.566406-2.515626-4.421876-8.140626-5.972657-12.566407-3.457032-.035156.023438-.070312.042969-.105469.0625l-15.960937 9.214844c-4.40625 2.546875-5.917969 8.183594-3.371094 12.589844 1.644531 2.851562 4.6875 4.609375 7.976563 4.609375zm0 0" data-original="#000000" class="active-path" data-old_color="#000000" fill="#C5A182"/><path d="m95.769531 214.875v18.433594c0 5.089844 4.128907 9.214844 9.21875 9.214844 5.089844 0 9.214844-4.125 9.214844-9.214844v-18.433594c0-5.089844-4.125-9.214844-9.214844-9.214844-5.089843 0-9.21875 4.125-9.21875 9.214844zm0 0" data-original="#000000" class="active-path" data-old_color="#000000" fill="#C5A182"/><path d="m180.1875 176.777344 15.960938 9.214844c4.390624 2.574218 10.039062 1.101562 12.609374-3.289063 2.574219-4.390625 1.101563-10.035156-3.289062-12.609375-.035156-.019531-.070312-.042969-.105469-.0625l-15.960937-9.214844c-4.425782-2.515625-10.050782-.96875-12.566406 3.457032-2.492188 4.382812-1 9.953124 3.351562 12.503906zm0 0" data-original="#000000" class="active-path" data-old_color="#000000" fill="#C5A182"/><path d="m184.804688 85.855469c1.617187 0 3.207031-.425781 4.609374-1.234375l15.960938-9.214844c4.421875-2.515625 5.96875-8.144531 3.453125-12.566406-2.515625-4.425782-8.140625-5.972656-12.5625-3.457032-.039063.019532-.074219.039063-.109375.0625l-15.960938 9.214844c-4.40625 2.542969-5.917968 8.179688-3.371093 12.589844 1.644531 2.847656 4.6875 4.605469 7.980469 4.605469zm0 0" data-original="#000000" class="active-path" data-old_color="#000000" fill="#C5A182"/></g> </svg>
