<svg xmlns="http://www.w3.org/2000/svg" viewBox="0 0 90.63 91.01"><defs><style>.a{fill:#c3a180;}</style></defs><title>gymnasium</title><path class="a" d="M138.38,832c-5.63-5.72-4.91-6.9,1.41-12.95-0.8-.81-1.62-1.61-2.4-2.45a4.58,4.58,0,0,1,0-6.8c0.85-.9,1.74-1.77,2.63-2.64,2.38-2.32,4.83-2.34,7.2,0q12.65,12.6,25.26,25.25c2.91,2.91,5.84,5.81,8.73,8.75s2.71,4.75-.11,7.47c-0.94.91-1.86,1.85-2.77,2.78a3.92,3.92,0,0,1-5.75.31c-0.89-.74-1.7-1.58-2.54-2.37-7,6.24-7.45,6.27-13.58.7-1.14,1.2-2.26,2.44-3.45,3.61-2.14,2.11-4.63,2.3-6.77.24q-6-5.77-11.79-11.8c-1.73-1.79-1.53-4.6.29-6.6C135.88,834.37,137.11,833.28,138.38,832Zm2.06-19,35.27,35.32,3.6-3.31-35.09-35.19Zm26.82,33.8c-0.67-.77-1.06-1.28-1.51-1.72q-10.2-10.22-20.42-20.42c-3.28-3.26-2.28-3.11-5.6,0-1.25,1.16-1.31,1.87,0,3.12,7.19,7.07,14.28,14.24,21.44,21.34,0.59,0.59,1.82,1.47,2.1,1.28A39,39,0,0,0,167.26,846.86Zm-17.92,4.63,4.74-3.73L141,835l-4,4.1Z" transform="translate(-133.3 -764.4)"/><path class="a" d="M188,771.24c6.16-6.84,7.74-6.47,12.75-1.58,1.18-1.22,2.33-2.48,3.54-3.66,2.13-2.08,4.69-2.14,6.78-.09q5.73,5.64,11.37,11.38a4.45,4.45,0,0,1,.07,6.5c-1.06,1.16-2.18,2.26-3.26,3.39a3.07,3.07,0,0,0-.33.64c1.52,2.15,4.38,3.49,4.09,6.89s-3.72,3.75-5.44,6l2.24,2.37c2.06,2.2,2.08,4.63,0,6.79-0.85.9-1.75,1.77-2.64,2.64-2.44,2.38-4.87,2.36-7.35-.1q-10.77-10.74-21.52-21.5-6-6-12.07-12.08c-2.65-2.68-2.52-5.63.32-8.14l0.59-.52c4.54-4,5.7-3.95,10,.23C187.47,770.72,187.76,771,188,771.24Zm-9.26,3.21,35.43,35.61,4.25-3.91c-2.26-2-4.49-3.82-6.5-5.84-8.51-8.59-16.91-17.28-25.43-25.85C182.3,770.19,183.3,769.55,178.79,774.44Zm37.29,24.32a25.37,25.37,0,0,1,2.52-3c1.31-1.14,1.24-1.92,0-3.13-6.94-6.84-13.81-13.75-20.68-20.66-0.82-.82-1.51-1.77-2.39-2.82-1.26,1.33-2.08,2.37-3.06,3.2-1.25,1.06-1.2,1.83,0,3,7.32,7.22,14.56,14.51,21.83,21.77C214.69,797.53,215.14,797.9,216.08,798.77ZM220.67,780c-4.11-4.08-8-8-12-11.87a1.38,1.38,0,0,0-1-.37c-1.36,1.36-2.68,2.75-3.92,4.22a1.6,1.6,0,0,0,.47,1.18c3.67,3.72,7.35,7.42,11.1,11.05a1.6,1.6,0,0,0,1.57,0C218.14,782.94,219.26,781.58,220.67,780Z" transform="translate(-133.3 -764.4)"/><path class="a" d="M167.38,823.4c-0.66-.47-1.53-0.77-1.68-1.27a2.48,2.48,0,0,1,.49-2.05q10.92-11.26,22-22.4c1-1,2.44-1.43,3.26-.39a3.36,3.36,0,0,1-.38,3.22c-7.15,7.36-14.44,14.58-21.72,21.81A8.88,8.88,0,0,1,167.38,823.4Z" transform="translate(-133.3 -764.4)"/></svg>