<svg xmlns="http://www.w3.org/2000/svg" viewBox="0 0 52.54 66.76"><defs><style>.a{fill:#c3a180;}</style></defs><title>Home-residential</title><path class="a" d="M2132.47,6455.66c1.61-1.61,3.17-3.27,4.87-4.79a2.43,2.43,0,0,0,.83-2.09c0-4.1-.13-8.21,0-12.31a35.8,35.8,0,0,1,13.45-27,2.18,2.18,0,0,1,1-.36,6.74,6.74,0,0,1,1.11,0c0-.79,0-1.52,0-2.25a1.55,1.55,0,0,1,.62-1.48,2.07,2.07,0,0,0,.83-2,11.58,11.58,0,0,1,.11-3.75,13.13,13.13,0,0,1,2-3.13c0.37-.56.77-1.09,1.15-1.64h0.52a4.24,4.24,0,0,1,.54.55c0.86,1.26,1.71,2.51,2.53,3.79a2,2,0,0,1,.28,1c0,1.26,0,2.52,0,3.78a1.29,1.29,0,0,0,.34.9,2.69,2.69,0,0,1,1.07,2.68,12.51,12.51,0,0,0,0,1.44,0.59,0.59,0,0,0,.19.08c1.3-.26,2.14.51,3,1.29a36.42,36.42,0,0,1,11.93,21.48,60.29,60.29,0,0,1,.47,10.27c0,2.43,0,4.86,0,7.3a1.2,1.2,0,0,0,.51,1.12,25.75,25.75,0,0,1,2.14,2.09l3,3v6h-1.45v-1.39h-2.84v1.36h-1.36l-0.07-1.37h-12.72l-0.07,1.35h-1.39v-1.34h-1.4v1.34h-1.44v-1.33h-7.11v1.34h-1.37l-0.07-1.37h-1.34l-0.07,1.36h-1.39v-1.34h-12.79v1.35h-1.37l-0.06-1.35h-2.83v1.38h-1.41v-6Zm32.55-21c0-.42,0-0.77,0-1.11-0.28-2.79-.48-5.58-0.89-8.35a52.27,52.27,0,0,0-3.76-13.37c-0.42-1-.89-1.48-2-1.29a0.88,0.88,0,0,0-.88.56c-0.76,2-1.66,4-2.31,6.07a67.44,67.44,0,0,0-2.74,16.92c0,0.19,0,.37,0,0.58H2165Zm-3.68-24.1c3.52,7.7,4.76,15.8,5.17,24.1h11.24c0-.44-0.09-0.84-0.14-1.24a34.69,34.69,0,0,0-12.27-22.49,1.18,1.18,0,0,0-.59-0.35C2163.65,6410.52,2162.55,6410.53,2161.35,6410.53Zm-5.23.07a0.9,0.9,0,0,0-.19-0.07c-0.85,0-1.69,0-2.54,0a1.86,1.86,0,0,0-1.4.51,34.84,34.84,0,0,0-11.62,19.48c-0.29,1.34-.45,2.71-0.68,4.12H2151C2151.39,6426.34,2152.63,6418.26,2156.11,6410.61Zm-3.71,29.79v9.86h12.69v-9.86H2152.4Zm14.18,9.87h11.3v-9.87h-11.3v9.87Zm-15.67-9.86h-11.28v9.84h11.28v-9.84Zm28.26,18.37a11,11,0,0,0-5.51-6.92,2,2,0,0,0-1.59.08,10.93,10.93,0,0,0-4.93,5.6c-0.16.39-.27,0.79-0.42,1.24h12.45Zm-40.85,0h12.37a0.61,0.61,0,0,0,0-.17,10.89,10.89,0,0,0-5.38-6.71,1.8,1.8,0,0,0-1.48,0A11.08,11.08,0,0,0,2138.32,6458.76Zm21.17-56.73v7h2.8c0-1.29.37-2.61-1-3.52a1.5,1.5,0,0,1-.42-1.07c-0.05-1.3,0-2.61,0-3.91a1.12,1.12,0,0,0-.08-0.56c-0.65-1-1.33-2-2-3-1.3,1.68-2.61,3.27-2.19,5.57,0.09,0.5,0,1,0,1.56a1.9,1.9,0,0,1-.75,1.82,1.63,1.63,0,0,0-.65.84,19.42,19.42,0,0,0,0,2.33H2158v-7h1.46Zm5.61,34.11h-12.69v2.75h12.69v-2.75Zm1.48,2.76h11.29v-2.76h-11.29v2.76Zm-15.66-2.77h-11.31v2.74h11.31v-2.74Zm-3.17,15.61a12.66,12.66,0,0,1,4.48,7h1.54c0-1.29,0-2.52,0-3.76a1.54,1.54,0,0,1,.52-1.26c0.65-.61,1.27-1.26,2-2h-8.53Zm21.95,0h-8.55c0.7,0.67,1.24,1.23,1.84,1.73a2,2,0,0,1,.75,1.82c-0.06,1.14,0,2.28,0,3.42h1.54A12.64,12.64,0,0,1,2169.7,6451.78Zm-7.46,4.15a1.48,1.48,0,0,0-.47-1.63c-0.79-.71-1.51-1.5-2.26-2.24a1,1,0,0,0-1.52,0c-0.77.76-1.51,1.56-2.31,2.29a1.42,1.42,0,0,0-.42,1.58h7Zm-7,2.83h7v-1.34h-7v1.34Zm-20.88-2.8c1.13,0,2.21,0,3.28,0a0.76,0.76,0,0,0,.51-0.54c0.05-1.07,0-2.14,0-3.21Zm45-3.82c0,0.94,0,1.81,0,2.67,0,1.1.06,1.17,1.18,1.16h2.66Zm-42.48,6.65,0.34-1.36H2134v1.36h2.9Zm43.43-1.37,0.35,1.34h2.92v-1.34h-3.27Zm-40.67-5.67v1.57l1.4-1.57h-1.4Zm36.58,0,1.67,1.59v-1.59h-1.67Z" transform="translate(-2132.47 -6394.9)"/><path class="a" d="M2158.77,6448.87a3.55,3.55,0,1,1,3.53-3.53A3.59,3.59,0,0,1,2158.77,6448.87Zm0-1.43a2.13,2.13,0,1,0-2.12-2.17A2.14,2.14,0,0,0,2158.73,6447.44Z" transform="translate(-2132.47 -6394.9)"/><path class="a" d="M2172.93,6441.77a3.55,3.55,0,1,1-3.54,3.58A3.56,3.56,0,0,1,2172.93,6441.77Zm0,5.67a2.13,2.13,0,1,0-2.12-2.1A2.13,2.13,0,0,0,2172.94,6447.44Z" transform="translate(-2132.47 -6394.9)"/><path class="a" d="M2144.53,6448.87a3.55,3.55,0,1,1,3.57-3.56A3.58,3.58,0,0,1,2144.53,6448.87Zm0-1.43a2.13,2.13,0,1,0-2.14-2.09A2.15,2.15,0,0,0,2144.55,6447.44Z" transform="translate(-2132.47 -6394.9)"/></svg>