<svg xmlns="http://www.w3.org/2000/svg" viewBox="0 0 57.22 54.31"><defs><style>.a{fill:#c3a180;}</style></defs><title>Home-commercial</title><path class="a" d="M2187.9,6583.18h-53.64a8.17,8.17,0,0,1-.36-1.69q0-15.56,0-31.13c0-.44,0-0.88,0-1.29l-1.41-.54v-0.67c1.13-.78,2.24-1.61,3.4-2.33a1.56,1.56,0,0,0,.89-1.61c-0.07-.85,0-1.71,0-2.57a0.92,0.92,0,0,1,1.09-1.07c0.58,0,1.16,0,1.8,0,0-1.16-.23-2.3,1.4-2.22-0.13-1.12.5-1.44,1.49-1.42-0.19-1.19.44-1.42,1.38-1.36a1.65,1.65,0,0,0,1-.22,25.89,25.89,0,0,1,8.88-4.61l0.34-1.59h13.63a1.71,1.71,0,0,1,.41.74c-0.09.81,0.4,1,1,1.15a24.88,24.88,0,0,1,7.55,4,2.59,2.59,0,0,0,1.48.56c1,0,1.58.27,1.47,1.41,1.06-.11,1.5.41,1.46,1.48,1.95-.32,1.15,1.26,1.47,2.12,0.54,0,1,0,1.5,0a1.06,1.06,0,0,1,1.29,1.33c0,0.78,0,1.56,0,2.34a1.47,1.47,0,0,0,.8,1.54c1.2,0.74,2.33,1.58,3.49,2.39v0.67l-1.42.54c0,0.4,0,.84,0,1.29q0,15.56,0,31.12A8.32,8.32,0,0,1,2187.9,6583.18ZM2184,6579h1.52v2.76l1.26-.06V6549h-9.93c0,2.73,0,5.37,0,8,0,1.45-.26,3,1.71,3.41a0.89,0.89,0,0,1,.38.79,1.07,1.07,0,0,1-.73.52,5.16,5.16,0,0,1-1.16,0,1,1,0,0,0-.15.29c0,6.37,0,12.74,0,19.11a0.84,0.84,0,0,0,.55.61c2.15,0,4.3,0,6.58,0V6579Zm-48.54,2.69h1.34V6579h1.48v2.76c2,0,4,0,5.88,0,1,0,1.28-.2,1.27-1.22-0.05-5.88,0-11.77,0-17.66v-1.09c-0.28,0-.43-0.07-0.57-0.07a1.82,1.82,0,0,1-.55,0,10.82,10.82,0,0,1-1-.52,2.13,2.13,0,0,1,.61-0.91c1.39-.41,1.58-1.35,1.54-2.63-0.09-2.49,0-5,0-7.49,0-.39,0-0.79,0-1.2h-9.95v32.72Zm20-51.36c0.12,1.08-.48,1.36-1.28,1.58a23,23,0,0,0-7.65,3.81,23.51,23.51,0,0,1-2.48,1.39c0.18,0.77-.44,1.11-1.43,1.1,0,0.85-.19,1.47-1.17,1.41a1,1,0,0,0-.29.37,1.26,1.26,0,0,0,.41.28,4.29,4.29,0,0,0,.78,0H2180a3.06,3.06,0,0,0,.67,0,1.36,1.36,0,0,0,.41-0.28,1,1,0,0,0-.29-0.37c-1,.06-1.2-0.56-1.16-1.42l-0.31.28L2178,6537a13.86,13.86,0,0,1-2-1.06,22.5,22.5,0,0,0-7.81-4c-0.88-.23-1.49-0.58-1.45-1.62h-11.35Zm-17.08,11.47v2.68h45.56v-2.68h-45.56Zm36.36,18.46,0-.22c-4.42-2.2-8.83-4.42-13.26-6.59a1.52,1.52,0,0,0-1.11.18q-6.1,3-12.18,6.07c-0.24.12-.47,0.28-0.92,0.56h27.42Zm-27.84,4.26h28.5v-2.71h-28.5v2.71Zm0.08-5.84c0.33-.15.66-0.29,1-0.45,4.09-2,8.19-4.07,12.27-6.14a1.85,1.85,0,0,1,1.87,0c3.94,2,7.91,4,11.87,5.95l1.5,0.72a6.8,6.8,0,0,1,0-1c0.21-1.2-.27-1.82-1.4-2.35-4.07-1.92-8.07-4-12.08-6a1.6,1.6,0,0,0-1.64,0c-3.84,2-7.71,3.87-11.57,5.8-2,1-2,1-1.89,3.34A1.18,1.18,0,0,0,2146.89,6558.69Zm39.44-11.31a4.64,4.64,0,0,0-3.58-1.36q-21.88.06-43.77,0a4.49,4.49,0,0,0-3.15,1.37h50.5Zm-39.47,18.69v15.61h2.73v-15.61h-2.73Zm7,15.61v-15.57h-2.76v15.57h2.76Zm17.2-15.61h-2.75v15.61h2.75v-15.61Zm1.53,0v15.62h2.73v-15.62h-2.73Zm-17.25,0c0,0.5,0,.9,0,1.3q0,6,0,12c0,2.61,0,2.61,2.61,2.35a0.33,0.33,0,0,0,.14-0.1V6566h-2.76Zm11.47,0.06H2164v15.67a11.28,11.28,0,0,1,1.51,0c1.06,0.15,1.31-.3,1.29-1.3-0.06-3.54,0-7.08,0-10.62C2166.82,6568.63,2166.82,6567.41,2166.82,6566.09Zm-7.08,0v15.6h2.69v-15.6h-2.69Zm5-17.11-0.06.21,10.61,5.29V6549h-10.55Zm-17.94,5.5,10.59-5.29-0.06-.21h-10.52v5.5Z" transform="translate(-2132.47 -6528.87)"/><path class="a" d="M2184,6554.49v-2.68h1.35v2.68H2184Z" transform="translate(-2132.47 -6528.87)"/><path class="a" d="M2179.59,6554.54h-1.24v-2.75h1.24v2.75Z" transform="translate(-2132.47 -6528.87)"/><path class="a" d="M2136.8,6551.78h1.34v2.73h-1.34v-2.73Z" transform="translate(-2132.47 -6528.87)"/><path class="a" d="M2143.82,6554.53h-1.26v-2.73h1.26v2.73Z" transform="translate(-2132.47 -6528.87)"/></svg>