<svg xmlns="http://www.w3.org/2000/svg" viewBox="0 0 99.21 99.06"><defs><style>.a{fill:#c3a180;}</style></defs><title>jogging track</title><path class="a" d="M528.68,1039.31c-13.43,0-26.87,0-40.3,0a5.75,5.75,0,0,1-4.94-2.77c-7.44-12.25-6.21-24.83,3.74-36.71,6.25-7.46,14.08-13.17,21.48-19.36,4.43-3.7,9.07-7.18,13.33-11.07a37.78,37.78,0,0,0,5.78-6.74A9.51,9.51,0,0,0,526,950a84.34,84.34,0,0,0-7.6-5.24c-1.09-.72-2.25-1.27-1.86-2.82s1.6-1.7,2.94-1.69l32.51,0a4.34,4.34,0,0,1,1.55.19c6.37,2.49,12.63,5.23,17.86,9.79,6.94,6,8.31,12.8,4,21A115.76,115.76,0,0,1,569,981.37c-2.62,3.93-5.38,7.77-8,11.7-7.1,10.6-7.06,20.61.62,30.81,3,3.95,6.79,7.27,10.24,10.85,0.84,0.88,2.17,1.53,1.54,3.06s-2,1.52-3.32,1.52H528.68Zm-0.23-94.6a0.81,0.81,0,0,0-.51,1.42l0.25,0.22c6.93,5.86,7.89,12.6,2.44,19.91a51.9,51.9,0,0,1-7.83,8.28c-7.18,6.15-14.57,12.06-21.9,18-5.32,4.34-10.27,9-13.85,15-5.2,8.61-5.44,17.32-.49,26.15a2.57,2.57,0,0,0,2.61,1.52c10.38-.06,20.76,0,31.14,0h0.26a0.81,0.81,0,0,0,.61-1.26l-0.46-.68a0.81,0.81,0,0,1,.19-1.09l2-1.51a0.81,0.81,0,0,1,1.08.09,24.81,24.81,0,0,1,2.77,3.23c0.79,1.22,1.76,1.26,3,1.25,11.17,0,22.34,0,33.51,0h0a0.81,0.81,0,0,0,.59-1.33c-2.3-2.73-4.64-5.32-6.62-8.16-7.43-10.65-8.27-21.76-1.49-33.05,2.66-4.44,5.8-8.59,8.63-12.93,2.71-4.17,5.57-8.28,7.85-12.68a9.17,9.17,0,0,0-1.88-11.28c-6.48-6.25-13.75-11.15-23.32-11-2,0-4.08.06-6.11,0-1.27,0-2.46,0-3.23,1.05a0.79,0.79,0,0,1-1.05.24C534.12,944.49,531.41,944.62,528.45,944.71Z" transform="translate(-478.65 -940.28)"/><path class="a" d="M549,970.91l-3.15,3.71a0.81,0.81,0,0,1-1.17.07l-2-1.82a0.81,0.81,0,0,1-.06-1.12l3-3.47a0.81,0.81,0,0,1,1.1-.12l2.12,1.57A0.81,0.81,0,0,1,549,970.91Z" transform="translate(-478.65 -940.28)"/><path class="a" d="M546.65,952.82L543.33,950a0.81,0.81,0,0,1-.15-1.05l1.42-2.21a0.81,0.81,0,0,1,1.2-.18l3.87,3.24a0.81,0.81,0,0,1,0,1.21l-2,1.83A0.81,0.81,0,0,1,546.65,952.82Z" transform="translate(-478.65 -940.28)"/><path class="a" d="M520.85,995.86l2.07,1.55a0.81,0.81,0,0,1,.2,1.08l-2.38,3.79a0.81,0.81,0,0,1-1,.3l-2.31-1.15a0.81,0.81,0,0,1-.3-1.13l2.58-4.21A0.81,0.81,0,0,1,520.85,995.86Z" transform="translate(-478.65 -940.28)"/><path class="a" d="M550.33,957.6l2.62-.5a0.81,0.81,0,0,1,1,.89l-0.64,5.34a0.81,0.81,0,0,1-1,.68l-0.4-.11c-2-.45-3.15-1.32-2.22-3.63a4.27,4.27,0,0,0,.07-1.82A0.8,0.8,0,0,1,550.33,957.6Z" transform="translate(-478.65 -940.28)"/><path class="a" d="M514.92,1020.64l2.36-.62a0.81,0.81,0,0,1,1,.48l1.65,4.09a0.81,0.81,0,0,1-.37,1l-2.13,1.14a0.81,0.81,0,0,1-1.13-.4l-1.89-4.61A0.81,0.81,0,0,1,514.92,1020.64Z" transform="translate(-478.65 -940.28)"/><path class="a" d="M534,980.55l3.16-2.81a0.81,0.81,0,0,1,1.19.12l1.53,2.07a0.81,0.81,0,0,1-.11,1.09l-2.88,2.55a0.81,0.81,0,0,1-1.11,0L534,981.73A0.81,0.81,0,0,1,534,980.55Z" transform="translate(-478.65 -940.28)"/><path class="a" d="M529.48,986.54l2,1.93a0.81,0.81,0,0,1,0,1.15l-3,3.09a0.81,0.81,0,0,1-1.15,0l-2-2a0.81,0.81,0,0,1,0-1.13l2.92-3.06A0.81,0.81,0,0,1,529.48,986.54Z" transform="translate(-478.65 -940.28)"/><path class="a" d="M516.66,1014h-2.5a0.81,0.81,0,0,1-.8-0.89l0.47-4.75a0.81,0.81,0,0,1,1-.71l2.5,0.59a0.81,0.81,0,0,1,.62.88l-0.47,4.16A0.81,0.81,0,0,1,516.66,1014Z" transform="translate(-478.65 -940.28)"/></svg>