<svg xmlns="http://www.w3.org/2000/svg" viewBox="0 0 125.85 98.46"><defs><style>.a{fill:#c3a180;}</style></defs><title>landscape-garden</title><path class="a" d="M936.52,1219.79H810.67v-3.9h15.57V1202c-5.95-1.41-8.62-5.84-10.2-11.19a45.83,45.83,0,0,1-1.46-15.22,84.23,84.23,0,0,1,4.65-25.27,63.28,63.28,0,0,1,3.38-7.07,9.05,9.05,0,0,1,1.58-2c2.69-2.8,5.78-2.88,8.25.11a28.34,28.34,0,0,1,3.92,6.47c2.75,6.18,4.06,12.77,4.93,19.45a73.75,73.75,0,0,1,.53,16.55,31.57,31.57,0,0,1-2.49,10.34c-1.81,3.95-4.53,6.89-9,7.84v13.84h4a14.73,14.73,0,0,1,3.22-6.73,13.57,13.57,0,0,1,21,0,2.67,2.67,0,0,0,1.94,1,7.84,7.84,0,0,1,6.55,4.91,1.26,1.26,0,0,0,1.43.95c1-.07,2,0,3,0v-15.38a39,39,0,0,1-5.74-2.29c-2.67-1.58-3.89-4.36-4.43-7.24a62.54,62.54,0,0,1-1.41-11.55c0-7,.36-13.93.95-20.86a122.28,122.28,0,0,1,4.13-23.68,69,69,0,0,1,3.16-8.49,12.84,12.84,0,0,1,2.6-3.68c1.75-1.79,4-1.85,5.62,0a22.8,22.8,0,0,1,3.52,5.55,68.47,68.47,0,0,1,4.44,16.18,181.24,181.24,0,0,1,3,34.48,45.78,45.78,0,0,1-1.8,13.22c-1.46,4.58-4.35,7.42-9.28,7.87a5.42,5.42,0,0,0-.62.13v15.65h2.08l0.39-1.08c1.78-4.76,7.17-8,12.18-6.26a1.35,1.35,0,0,0,1.14-.26c9.1-8.67,21.43-2.56,23.38,7.59h2c0-4.56,0-9.17,0-13.77-6.82-1.78-9.33-7.1-10.69-13.22-1.63-7.35-1.15-14.75-.17-22.13a68.88,68.88,0,0,1,4.83-18.85,28.88,28.88,0,0,1,3.34-5.83c2.92-3.85,6.45-3.82,9.48-.07a31.3,31.3,0,0,1,5.25,11,87.84,87.84,0,0,1,3.73,28,32.9,32.9,0,0,1-2.92,13.71c-1.82,3.71-4.5,6.42-8.76,7.3v13.92h15.68v3.94Zm-53.12-44.07a188.23,188.23,0,0,0-2.28-26.56,102.87,102.87,0,0,0-4.35-18.75,22.91,22.91,0,0,0-2.08-4.28c-0.68-1.1-1.44-1-2.27,0a3.23,3.23,0,0,0-.59.93c-1.08,3-2.35,5.94-3.15,9a154.47,154.47,0,0,0-4.26,26.4c-0.65,7.77-1.16,15.55-.16,23.31a32.32,32.32,0,0,0,2,7.17,4.81,4.81,0,0,0,4.38,3.11c1.55,0.11,3.11.13,4.66,0.14a6.14,6.14,0,0,0,6.25-4.41,20,20,0,0,0,.67-2.1C883.35,1185,883.36,1180.22,883.4,1175.73Zm-45.25,2.37a97.22,97.22,0,0,0-2.74-22c-1-3.9-2.05-7.77-4.38-11.13-1.74-2.52-3.77-2.57-5.43,0a25.08,25.08,0,0,0-2.69,5.48,86.42,86.42,0,0,0-4.14,34.51,21.53,21.53,0,0,0,2.42,9.07,8.17,8.17,0,0,0,14.2,0,15.89,15.89,0,0,0,1.24-2.93C838,1186.86,838.1,1182.48,838.14,1178.09Zm90.49-1.31a98,98,0,0,0-3-22,31.64,31.64,0,0,0-4-9.73c-1.84-2.69-3.92-2.73-5.65,0a25.28,25.28,0,0,0-2.56,5.28,86.67,86.67,0,0,0-4.14,34.51,20.86,20.86,0,0,0,2.53,9.28,8.07,8.07,0,0,0,14,0,14.87,14.87,0,0,0,1.35-3.15C928.59,1186.37,928.67,1181.58,928.63,1176.78Zm-73.5,34.28c-1.81-2.52-6-3.76-9.9-2.73a9.08,9.08,0,0,0-6.81,7.52c4.42,0,8.83,0,13.24,0a1,1,0,0,0,.64-0.41C853.25,1214,854.15,1212.59,855.13,1211.06Zm55.53,4.76a9.16,9.16,0,0,0-7.09-7.56c-3.76-.82-7.77.37-9.17,2.57l2.83,5h13.44Zm-28.81,0h11A5.81,5.81,0,0,0,881.85,1215.79Zm-18.62,0a3.68,3.68,0,0,0-4.13-1.9,3.19,3.19,0,0,0-2.79,1.9h6.92Z" transform="translate(-810.67 -1121.33)"/></svg>