<?xml version="1.0"?>
<svg xmlns="http://www.w3.org/2000/svg" height="512px" viewBox="0 0 511.99922 511" width="512px" class=""><g><path d="m283.929688 263.433594c-2.628907 0-5.210938 1.070312-7.070313 2.929687s-2.929687 4.4375-2.929687 7.066407c0 2.628906 1.070312 5.210937 2.929687 7.070312s4.441406 2.929688 7.070313 2.929688c2.628906 0 5.207031-1.070313 7.066406-2.929688s2.929687-4.441406 2.929687-7.070312c0-2.628907-1.070312-5.207032-2.929687-7.066407s-4.4375-2.929687-7.066406-2.929687zm0 0" data-original="#000000" class="active-path" data-old_color="#000000" fill="#C5A182"/><path d="m511.871094 356.078125c0-5.523437-4.476563-10-9.996094-10-5.523438 0-9.996094 4.476563-9.996094 10v6.332031h-35.992187v-6.332031c0-5.523437-4.476563-10-10-10-5.519531 0-9.996094 4.476563-9.996094 10v6.332031h-35.992187v-6.332031c0-5.523437-4.472657-10-9.996094-10-5.519532 0-9.996094 4.476563-9.996094 10v6.332031h-35.992188v-6.332031c0-5.523437-4.476562-10-9.996093-10-5.523438 0-10 4.476563-10 10v6.332031h-29.992188v-48.988281c0-5.523437-4.476562-10-9.996093-10-5.523438 0-10 4.476563-10 10v124.96875h-35.988282v-273.933594h35.988282v68.984375c0 5.519532 4.476562 9.996094 10 9.996094 5.519531 0 9.996093-4.476562 9.996093-9.996094v-68.984375h208.074219c4.515625 0 8.46875-3.023437 9.648438-7.378906 1.183593-4.359375-.703126-8.964844-4.597657-11.246094l-245.9375-143.964843c-3.121093-1.8242192-6.980469-1.8242192-10.101562 0l-245.9375 143.964843c-3.898438 2.28125-5.78125 6.890625-4.601563 11.246094 1.183594 4.355469 5.136719 7.378906 9.648438 7.378906h207.824218v197.953125h-29.992187v-6.332031c0-5.523437-4.476563-10-9.996094-10-5.523437 0-10 4.476563-10 10v6.332031h-35.988281v-6.332031c0-5.523437-4.476562-10-10-10-5.519531 0-9.996094 4.476563-9.996094 10v6.332031h-35.992187v-6.332031c0-5.523437-4.476563-10-9.996094-10-5.523437 0-10 4.476563-10 10v6.332031h-35.988281v-6.332031c0-5.523437-4.476563-10-10-10-5.519532 0-9.996094 4.476563-9.996094 10v146.296875c0 5.519531 4.476562 9.996094 9.996094 9.996094h491.878906c5.519531 0 9.996094-4.476563 9.996094-9.996094zm-265.804688-328.144531v46.546875c0 5.519531 4.476563 9.996093 9.996094 9.996093 5.523438 0 9.996094-4.476562 9.996094-9.996093v-46.546875l199.074218 116.527344h-418.140624zm245.8125 354.46875v55.988281h-35.992187v-55.988281zm-55.988281 0v55.988281h-35.992187v-55.988281zm-55.984375 0v55.988281h-35.992188v-55.988281zm-85.980469 0h29.992188v55.988281h-29.992188zm-75.980469 0v55.988281h-29.992187v-55.988281zm-49.988281 0v55.988281h-35.988281v-55.988281zm-55.984375 0v55.988281h-35.992187v-55.988281zm-55.988281 0v55.988281h-35.988281v-55.988281zm435.894531 109.972656h-471.882812v-33.992188h471.882812zm0 0" data-original="#000000" class="active-path" data-old_color="#000000" fill="#C5A182"/><path d="m256.066406 124.46875c2.628906 0 5.207032-1.070312 7.066406-2.929688 1.859376-1.859374 2.929688-4.4375 2.929688-7.070312 0-2.628906-1.070312-5.207031-2.929688-7.066406-1.859374-1.859375-4.4375-2.929688-7.066406-2.929688s-5.210937 1.070313-7.070312 2.929688-2.925782 4.4375-2.925782 7.066406c0 2.632812 1.066407 5.210938 2.925782 7.070312 1.859375 1.859376 4.441406 2.929688 7.070312 2.929688zm0 0" data-original="#000000" class="active-path" data-old_color="#000000" fill="#C5A182"/></g> </svg>
